<mxfile host="app.diagrams.net" modified="2024-03-31T09:37:21.117Z" agent="Mozilla/5.0 (Windows NT 10.0; Win64; x64) AppleWebKit/537.36 (KHTML, like Gecko) Chrome/123.0.0.0 Safari/537.36 Edg/123.0.0.0" etag="ecnb2HMitTDbnA-_OI9i" version="24.2.1" type="github">
  <diagram name="Page-1" id="b-pfYG7lwSajydebRXPd">
    <mxGraphModel dx="1243" dy="765" grid="1" gridSize="10" guides="1" tooltips="1" connect="1" arrows="1" fold="1" page="1" pageScale="1" pageWidth="850" pageHeight="1100" math="0" shadow="0">
      <root>
        <mxCell id="0" />
        <mxCell id="1" parent="0" />
        <mxCell id="VXq6Qg468y_y7rTipvn2-4" style="edgeStyle=orthogonalEdgeStyle;rounded=0;orthogonalLoop=1;jettySize=auto;html=1;exitX=0.5;exitY=1;exitDx=0;exitDy=0;entryX=0.5;entryY=0;entryDx=0;entryDy=0;endArrow=block;endFill=0;" edge="1" parent="1" source="VXq6Qg468y_y7rTipvn2-2" target="VXq6Qg468y_y7rTipvn2-3">
          <mxGeometry relative="1" as="geometry" />
        </mxCell>
        <mxCell id="VXq6Qg468y_y7rTipvn2-2" value="1. double weight, height" style="rounded=1;whiteSpace=wrap;html=1;" vertex="1" parent="1">
          <mxGeometry x="55" y="140" width="185" height="90" as="geometry" />
        </mxCell>
        <mxCell id="VXq6Qg468y_y7rTipvn2-6" style="edgeStyle=orthogonalEdgeStyle;rounded=0;orthogonalLoop=1;jettySize=auto;html=1;exitX=0.5;exitY=1;exitDx=0;exitDy=0;entryX=0.5;entryY=0;entryDx=0;entryDy=0;endArrow=block;endFill=0;" edge="1" parent="1" source="VXq6Qg468y_y7rTipvn2-3" target="VXq6Qg468y_y7rTipvn2-5">
          <mxGeometry relative="1" as="geometry" />
        </mxCell>
        <mxCell id="VXq6Qg468y_y7rTipvn2-3" value="2.&amp;nbsp;&lt;span style=&quot;background-color: initial;&quot;&gt;cout &amp;lt;&amp;lt; &quot;Enter weight (kg): &quot;;&lt;/span&gt;&lt;div&gt;&amp;nbsp; &amp;nbsp; cin &amp;gt;&amp;gt; weight;&lt;/div&gt;&lt;div&gt;&lt;br&gt;&lt;/div&gt;&lt;div&gt;&amp;nbsp; &amp;nbsp; cout &amp;lt;&amp;lt; &quot;Enter height (cm): &quot;;&lt;/div&gt;&lt;span style=&quot;background-color: initial;&quot;&gt;&amp;nbsp; &amp;nbsp; cin &amp;gt;&amp;gt; height;&lt;/span&gt;&amp;nbsp;" style="rounded=1;whiteSpace=wrap;html=1;" vertex="1" parent="1">
          <mxGeometry x="60" y="260" width="180" height="130" as="geometry" />
        </mxCell>
        <mxCell id="VXq6Qg468y_y7rTipvn2-9" style="edgeStyle=orthogonalEdgeStyle;rounded=0;orthogonalLoop=1;jettySize=auto;html=1;exitX=1;exitY=0.5;exitDx=0;exitDy=0;entryX=0;entryY=0.5;entryDx=0;entryDy=0;endArrow=block;endFill=0;" edge="1" parent="1" source="VXq6Qg468y_y7rTipvn2-5" target="VXq6Qg468y_y7rTipvn2-7">
          <mxGeometry relative="1" as="geometry" />
        </mxCell>
        <mxCell id="VXq6Qg468y_y7rTipvn2-5" value="3. bool isValidWeight(weight)" style="rounded=1;whiteSpace=wrap;html=1;" vertex="1" parent="1">
          <mxGeometry x="62.5" y="440" width="175" height="90" as="geometry" />
        </mxCell>
        <mxCell id="VXq6Qg468y_y7rTipvn2-14" style="edgeStyle=orthogonalEdgeStyle;rounded=0;orthogonalLoop=1;jettySize=auto;html=1;exitX=0.5;exitY=1;exitDx=0;exitDy=0;entryX=0.5;entryY=0;entryDx=0;entryDy=0;endArrow=block;endFill=0;" edge="1" parent="1" source="VXq6Qg468y_y7rTipvn2-7" target="VXq6Qg468y_y7rTipvn2-13">
          <mxGeometry relative="1" as="geometry" />
        </mxCell>
        <mxCell id="VXq6Qg468y_y7rTipvn2-21" style="edgeStyle=orthogonalEdgeStyle;rounded=0;orthogonalLoop=1;jettySize=auto;html=1;exitX=1;exitY=0.5;exitDx=0;exitDy=0;endArrow=block;endFill=0;" edge="1" parent="1" source="VXq6Qg468y_y7rTipvn2-7" target="VXq6Qg468y_y7rTipvn2-10">
          <mxGeometry relative="1" as="geometry" />
        </mxCell>
        <mxCell id="VXq6Qg468y_y7rTipvn2-7" value="4. return (weight &amp;gt;= 1.1 &amp;amp;&amp;amp; weight &amp;lt;= 650)" style="rhombus;whiteSpace=wrap;html=1;spacingLeft=7;spacingRight=7;" vertex="1" parent="1">
          <mxGeometry x="300" y="425" width="185" height="120" as="geometry" />
        </mxCell>
        <mxCell id="VXq6Qg468y_y7rTipvn2-53" style="edgeStyle=orthogonalEdgeStyle;rounded=0;orthogonalLoop=1;jettySize=auto;html=1;exitX=1;exitY=0.5;exitDx=0;exitDy=0;entryX=0.5;entryY=0;entryDx=0;entryDy=0;endArrow=block;endFill=0;" edge="1" parent="1" source="VXq6Qg468y_y7rTipvn2-10" target="VXq6Qg468y_y7rTipvn2-52">
          <mxGeometry relative="1" as="geometry" />
        </mxCell>
        <mxCell id="VXq6Qg468y_y7rTipvn2-10" value="5. cout &amp;lt;&amp;lt; &quot;Invalid Input&quot; &amp;lt;&amp;lt; endl&lt;div&gt;return 1&lt;/div&gt;" style="rounded=1;whiteSpace=wrap;html=1;" vertex="1" parent="1">
          <mxGeometry x="580" y="600" width="200" height="100" as="geometry" />
        </mxCell>
        <mxCell id="VXq6Qg468y_y7rTipvn2-22" style="edgeStyle=orthogonalEdgeStyle;rounded=0;orthogonalLoop=1;jettySize=auto;html=1;exitX=1;exitY=0.5;exitDx=0;exitDy=0;entryX=0.5;entryY=1;entryDx=0;entryDy=0;endArrow=block;endFill=0;" edge="1" parent="1" source="VXq6Qg468y_y7rTipvn2-12" target="VXq6Qg468y_y7rTipvn2-10">
          <mxGeometry relative="1" as="geometry" />
        </mxCell>
        <mxCell id="VXq6Qg468y_y7rTipvn2-23" style="edgeStyle=orthogonalEdgeStyle;rounded=0;orthogonalLoop=1;jettySize=auto;html=1;exitX=0;exitY=0.5;exitDx=0;exitDy=0;entryX=1;entryY=0.5;entryDx=0;entryDy=0;endArrow=block;endFill=0;" edge="1" parent="1" source="VXq6Qg468y_y7rTipvn2-12" target="VXq6Qg468y_y7rTipvn2-20">
          <mxGeometry relative="1" as="geometry" />
        </mxCell>
        <mxCell id="VXq6Qg468y_y7rTipvn2-12" value="7. return (weight &amp;gt;= 1.1 &amp;amp;&amp;amp; weight &amp;lt;= 650)" style="rhombus;whiteSpace=wrap;html=1;spacingLeft=7;spacingRight=7;" vertex="1" parent="1">
          <mxGeometry x="300.01" y="760" width="185" height="120" as="geometry" />
        </mxCell>
        <mxCell id="VXq6Qg468y_y7rTipvn2-15" style="edgeStyle=orthogonalEdgeStyle;rounded=0;orthogonalLoop=1;jettySize=auto;html=1;exitX=0.5;exitY=1;exitDx=0;exitDy=0;entryX=0.5;entryY=0;entryDx=0;entryDy=0;endArrow=block;endFill=0;" edge="1" parent="1" source="VXq6Qg468y_y7rTipvn2-13" target="VXq6Qg468y_y7rTipvn2-12">
          <mxGeometry relative="1" as="geometry" />
        </mxCell>
        <mxCell id="VXq6Qg468y_y7rTipvn2-13" value="6. bool isValidHeight(height)" style="rounded=1;whiteSpace=wrap;html=1;" vertex="1" parent="1">
          <mxGeometry x="296.88" y="600" width="191.25" height="100" as="geometry" />
        </mxCell>
        <mxCell id="VXq6Qg468y_y7rTipvn2-57" style="edgeStyle=orthogonalEdgeStyle;rounded=0;orthogonalLoop=1;jettySize=auto;html=1;exitX=0.5;exitY=1;exitDx=0;exitDy=0;entryX=0.5;entryY=0;entryDx=0;entryDy=0;endArrow=block;endFill=0;" edge="1" parent="1" source="VXq6Qg468y_y7rTipvn2-20" target="VXq6Qg468y_y7rTipvn2-24">
          <mxGeometry relative="1" as="geometry" />
        </mxCell>
        <mxCell id="VXq6Qg468y_y7rTipvn2-20" value="8. double calculateBMI(weight, height)" style="rounded=1;whiteSpace=wrap;html=1;" vertex="1" parent="1">
          <mxGeometry x="65" y="772.5" width="170" height="95" as="geometry" />
        </mxCell>
        <mxCell id="VXq6Qg468y_y7rTipvn2-58" style="edgeStyle=orthogonalEdgeStyle;rounded=0;orthogonalLoop=1;jettySize=auto;html=1;exitX=1;exitY=0.5;exitDx=0;exitDy=0;entryX=0;entryY=0.5;entryDx=0;entryDy=0;endArrow=block;endFill=0;" edge="1" parent="1" source="VXq6Qg468y_y7rTipvn2-24" target="VXq6Qg468y_y7rTipvn2-26">
          <mxGeometry relative="1" as="geometry" />
        </mxCell>
        <mxCell id="VXq6Qg468y_y7rTipvn2-24" value="9. double bmi = weight / pow(height, 2)" style="rounded=1;whiteSpace=wrap;html=1;" vertex="1" parent="1">
          <mxGeometry x="65" y="930" width="170" height="90" as="geometry" />
        </mxCell>
        <mxCell id="VXq6Qg468y_y7rTipvn2-37" style="edgeStyle=orthogonalEdgeStyle;rounded=0;orthogonalLoop=1;jettySize=auto;html=1;exitX=0.5;exitY=1;exitDx=0;exitDy=0;entryX=0.5;entryY=0;entryDx=0;entryDy=0;endArrow=block;endFill=0;" edge="1" parent="1" source="VXq6Qg468y_y7rTipvn2-25" target="VXq6Qg468y_y7rTipvn2-35">
          <mxGeometry relative="1" as="geometry" />
        </mxCell>
        <mxCell id="VXq6Qg468y_y7rTipvn2-25" value="12. case 0...18: healthCondition = &quot;Underweight&quot;&lt;div&gt;break&lt;/div&gt;" style="rounded=1;whiteSpace=wrap;html=1;" vertex="1" parent="1">
          <mxGeometry x="65" y="1090" width="170" height="90" as="geometry" />
        </mxCell>
        <mxCell id="VXq6Qg468y_y7rTipvn2-59" style="edgeStyle=orthogonalEdgeStyle;rounded=0;orthogonalLoop=1;jettySize=auto;html=1;exitX=1;exitY=0.5;exitDx=0;exitDy=0;entryX=0;entryY=0.5;entryDx=0;entryDy=0;endArrow=block;endFill=0;" edge="1" parent="1" source="VXq6Qg468y_y7rTipvn2-26" target="VXq6Qg468y_y7rTipvn2-27">
          <mxGeometry relative="1" as="geometry" />
        </mxCell>
        <mxCell id="VXq6Qg468y_y7rTipvn2-26" value="10. cout &amp;lt;&amp;lt; &quot;BMI: &quot; &amp;lt;&amp;lt; bmi &amp;lt;&amp;lt; endl;&lt;div&gt;cout &amp;lt;&amp;lt; &quot;Health condition: &quot; &amp;lt;&amp;lt; getHealthCondition(bmi) &amp;lt;&amp;lt; endl&lt;/div&gt;" style="rounded=1;whiteSpace=wrap;html=1;" vertex="1" parent="1">
          <mxGeometry x="303.29" y="930" width="178.43" height="90" as="geometry" />
        </mxCell>
        <mxCell id="VXq6Qg468y_y7rTipvn2-31" style="edgeStyle=orthogonalEdgeStyle;rounded=0;orthogonalLoop=1;jettySize=auto;html=1;exitX=0.5;exitY=1;exitDx=0;exitDy=0;entryX=0.5;entryY=0;entryDx=0;entryDy=0;endArrow=block;endFill=0;" edge="1" parent="1" source="VXq6Qg468y_y7rTipvn2-27" target="VXq6Qg468y_y7rTipvn2-25">
          <mxGeometry relative="1" as="geometry" />
        </mxCell>
        <mxCell id="VXq6Qg468y_y7rTipvn2-32" style="edgeStyle=orthogonalEdgeStyle;rounded=0;orthogonalLoop=1;jettySize=auto;html=1;exitX=0.5;exitY=1;exitDx=0;exitDy=0;endArrow=block;endFill=0;" edge="1" parent="1" source="VXq6Qg468y_y7rTipvn2-27" target="VXq6Qg468y_y7rTipvn2-28">
          <mxGeometry relative="1" as="geometry" />
        </mxCell>
        <mxCell id="VXq6Qg468y_y7rTipvn2-33" style="edgeStyle=orthogonalEdgeStyle;rounded=0;orthogonalLoop=1;jettySize=auto;html=1;exitX=0.5;exitY=1;exitDx=0;exitDy=0;entryX=0.5;entryY=0;entryDx=0;entryDy=0;endArrow=block;endFill=0;" edge="1" parent="1" source="VXq6Qg468y_y7rTipvn2-27" target="VXq6Qg468y_y7rTipvn2-29">
          <mxGeometry relative="1" as="geometry" />
        </mxCell>
        <mxCell id="VXq6Qg468y_y7rTipvn2-34" style="edgeStyle=orthogonalEdgeStyle;rounded=0;orthogonalLoop=1;jettySize=auto;html=1;exitX=0.5;exitY=1;exitDx=0;exitDy=0;entryX=0.5;entryY=0;entryDx=0;entryDy=0;endArrow=block;endFill=0;" edge="1" parent="1" source="VXq6Qg468y_y7rTipvn2-27" target="VXq6Qg468y_y7rTipvn2-30">
          <mxGeometry relative="1" as="geometry" />
        </mxCell>
        <mxCell id="VXq6Qg468y_y7rTipvn2-27" value="11. string getHeathCondition(bmi)&lt;div&gt;string healthCondition&lt;/div&gt;&lt;div&gt;switch(static_cast&amp;lt;int&amp;gt;(bmi)&lt;/div&gt;" style="rounded=1;whiteSpace=wrap;html=1;" vertex="1" parent="1">
          <mxGeometry x="560" y="930" width="170" height="90" as="geometry" />
        </mxCell>
        <mxCell id="VXq6Qg468y_y7rTipvn2-38" style="edgeStyle=orthogonalEdgeStyle;rounded=0;orthogonalLoop=1;jettySize=auto;html=1;exitX=0.5;exitY=1;exitDx=0;exitDy=0;endArrow=block;endFill=0;" edge="1" parent="1" source="VXq6Qg468y_y7rTipvn2-28">
          <mxGeometry relative="1" as="geometry">
            <mxPoint x="520.0000000000002" y="1250" as="targetPoint" />
          </mxGeometry>
        </mxCell>
        <mxCell id="VXq6Qg468y_y7rTipvn2-28" value="13. case 19...24: healthCondition = &quot;Normal weight&quot;&lt;div&gt;break&lt;/div&gt;" style="rounded=1;whiteSpace=wrap;html=1;" vertex="1" parent="1">
          <mxGeometry x="307.5" y="1090" width="170" height="90" as="geometry" />
        </mxCell>
        <mxCell id="VXq6Qg468y_y7rTipvn2-39" style="edgeStyle=orthogonalEdgeStyle;rounded=0;orthogonalLoop=1;jettySize=auto;html=1;exitX=0.5;exitY=1;exitDx=0;exitDy=0;entryX=0.5;entryY=0;entryDx=0;entryDy=0;endArrow=block;endFill=0;" edge="1" parent="1" source="VXq6Qg468y_y7rTipvn2-29" target="VXq6Qg468y_y7rTipvn2-35">
          <mxGeometry relative="1" as="geometry" />
        </mxCell>
        <mxCell id="VXq6Qg468y_y7rTipvn2-29" value="14. case 25...29: healthCondition = &quot;Overweight&quot;&lt;div&gt;break&lt;/div&gt;" style="rounded=1;whiteSpace=wrap;html=1;" vertex="1" parent="1">
          <mxGeometry x="560" y="1090" width="170" height="90" as="geometry" />
        </mxCell>
        <mxCell id="VXq6Qg468y_y7rTipvn2-40" style="edgeStyle=orthogonalEdgeStyle;rounded=0;orthogonalLoop=1;jettySize=auto;html=1;exitX=0.5;exitY=1;exitDx=0;exitDy=0;endArrow=block;endFill=0;" edge="1" parent="1" source="VXq6Qg468y_y7rTipvn2-30">
          <mxGeometry relative="1" as="geometry">
            <mxPoint x="520.0000000000002" y="1250" as="targetPoint" />
          </mxGeometry>
        </mxCell>
        <mxCell id="VXq6Qg468y_y7rTipvn2-30" value="15. default: healthCondition = &quot;Obese&quot;&lt;div&gt;break&lt;/div&gt;" style="rounded=1;whiteSpace=wrap;html=1;" vertex="1" parent="1">
          <mxGeometry x="810" y="1090" width="170" height="90" as="geometry" />
        </mxCell>
        <mxCell id="VXq6Qg468y_y7rTipvn2-54" style="edgeStyle=orthogonalEdgeStyle;rounded=0;orthogonalLoop=1;jettySize=auto;html=1;exitX=1;exitY=0.5;exitDx=0;exitDy=0;entryX=1;entryY=0.5;entryDx=0;entryDy=0;endArrow=block;endFill=0;" edge="1" parent="1" source="VXq6Qg468y_y7rTipvn2-35" target="VXq6Qg468y_y7rTipvn2-52">
          <mxGeometry relative="1" as="geometry">
            <Array as="points">
              <mxPoint x="1020" y="1295" />
              <mxPoint x="1020" y="820" />
              <mxPoint x="922" y="820" />
            </Array>
          </mxGeometry>
        </mxCell>
        <mxCell id="VXq6Qg468y_y7rTipvn2-35" value="16. return 0" style="rounded=1;whiteSpace=wrap;html=1;" vertex="1" parent="1">
          <mxGeometry x="440" y="1250" width="160" height="90" as="geometry" />
        </mxCell>
        <mxCell id="VXq6Qg468y_y7rTipvn2-52" value="END" style="ellipse;whiteSpace=wrap;html=1;aspect=fixed;" vertex="1" parent="1">
          <mxGeometry x="825" y="772.5" width="97.5" height="97.5" as="geometry" />
        </mxCell>
        <mxCell id="VXq6Qg468y_y7rTipvn2-56" style="edgeStyle=orthogonalEdgeStyle;rounded=0;orthogonalLoop=1;jettySize=auto;html=1;exitX=0.5;exitY=1;exitDx=0;exitDy=0;entryX=0.5;entryY=0;entryDx=0;entryDy=0;endArrow=block;endFill=0;" edge="1" parent="1" source="VXq6Qg468y_y7rTipvn2-55" target="VXq6Qg468y_y7rTipvn2-2">
          <mxGeometry relative="1" as="geometry" />
        </mxCell>
        <mxCell id="VXq6Qg468y_y7rTipvn2-55" value="START" style="ellipse;whiteSpace=wrap;html=1;aspect=fixed;" vertex="1" parent="1">
          <mxGeometry x="102.5" y="10" width="90" height="90" as="geometry" />
        </mxCell>
        <mxCell id="VXq6Qg468y_y7rTipvn2-60" value="False" style="text;html=1;align=center;verticalAlign=middle;resizable=0;points=[];autosize=1;strokeColor=none;fillColor=none;fontSize=16;" vertex="1" parent="1">
          <mxGeometry x="530" y="448" width="60" height="30" as="geometry" />
        </mxCell>
        <mxCell id="VXq6Qg468y_y7rTipvn2-61" value="False" style="text;html=1;align=center;verticalAlign=middle;resizable=0;points=[];autosize=1;strokeColor=none;fillColor=none;fontSize=16;" vertex="1" parent="1">
          <mxGeometry x="530" y="780" width="60" height="30" as="geometry" />
        </mxCell>
        <mxCell id="VXq6Qg468y_y7rTipvn2-64" value="True" style="text;html=1;align=center;verticalAlign=middle;resizable=0;points=[];autosize=1;strokeColor=none;fillColor=none;fontSize=16;" vertex="1" parent="1">
          <mxGeometry x="385" y="550" width="60" height="30" as="geometry" />
        </mxCell>
        <mxCell id="VXq6Qg468y_y7rTipvn2-65" value="True" style="text;html=1;align=center;verticalAlign=middle;resizable=0;points=[];autosize=1;strokeColor=none;fillColor=none;fontSize=16;" vertex="1" parent="1">
          <mxGeometry x="243.29" y="820" width="60" height="30" as="geometry" />
        </mxCell>
      </root>
    </mxGraphModel>
  </diagram>
</mxfile>
